<svg xmlns="http://www.w3.org/2000/svg" width="16.348" height="14.713" viewBox="0 0 16.348 14.713">
  <path id="Path_certificate-outline" data-name="Path / certificate-outline" d="M10.991,17.713l1.635-.817,1.635.817V11.991h-3.27M14.261,7.9V6.27l-1.635.817L10.991,6.27V7.9l-1.635.817,1.635.817v1.635l1.635-.817,1.635.817V9.539L15.9,8.722M16.713,3H3.635A1.635,1.635,0,0,0,2,4.635v8.174a1.635,1.635,0,0,0,1.635,1.635H9.356V12.809H3.635V4.635H16.713v8.174H15.9v1.635h.817a1.635,1.635,0,0,0,1.635-1.635V4.635A1.635,1.635,0,0,0,16.713,3M9.356,7.087h-4.9V5.452h4.9M7.722,9.539H4.452V7.9h3.27m1.635,4.087h-4.9V10.356h4.9Z" transform="translate(-2 -3)" fill="#2b2d41"/>
</svg>
