<svg xmlns="http://www.w3.org/2000/svg" width="15.404" height="13.034" viewBox="0 0 15.404 13.034"><path d="M16.406,10.91A4.547,4.547,0,0,0,17.567,8.7a.558.558,0,0,0-.118-.482.627.627,0,0,0-.442-.229,3.621,3.621,0,0,1-2.638-1.351,3.529,3.529,0,0,1-.671-2.7.593.593,0,0,0-.134-.482.585.585,0,0,0-.45-.213A4.548,4.548,0,0,0,8.57,7.782a3.581,3.581,0,0,0,.024.411,4.563,4.563,0,0,0-2.67,2.251,3.024,3.024,0,0,0-.711-.095,2.962,2.962,0,1,0,0,5.925h9.479A2.958,2.958,0,0,0,16.406,10.9ZM9.755,7.79A3.357,3.357,0,0,1,12.472,4.5a4.685,4.685,0,0,0,.964,2.868,4.743,4.743,0,0,0,2.781,1.714A3.307,3.307,0,0,1,15.2,10.413a2.716,2.716,0,0,0-1.217.047A4.531,4.531,0,0,0,9.952,8a1.183,1.183,0,0,0-.174.016c0-.071-.024-.142-.024-.213ZM14.692,15.1H5.212a1.777,1.777,0,1,1,0-3.555,1.76,1.76,0,0,1,.774.174h.032c.008,0,.016.008.024.016a.269.269,0,0,0,.111.016c.024,0,.055.016.079.016h.008a.463.463,0,0,0,.182-.032c.024-.008.047-.024.071-.032a.448.448,0,0,0,.1-.063.511.511,0,0,0,.071-.063l.071-.095c.008-.016.032-.032.039-.047a.047.047,0,0,1,.008-.032.08.08,0,0,0,.008-.024,3.362,3.362,0,0,1,3.16-2.212,3.3,3.3,0,0,1,3.1,2.054c.008.024.032.039.039.063a.579.579,0,0,0,.039.158.594.594,0,0,0,.79.276,1.712,1.712,0,0,1,.774-.174,1.777,1.777,0,1,1,0,3.555Z" transform="translate(-2.25 -3.24)" fill="#2b2d41"/></svg>