<svg fill="#000000" xmlns="http://www.w3.org/2000/svg"  viewBox="0 0 16 16" width="16px" height="16px"><path d="M 3 1 L 3 2 L 2.5 2 C 1.675781 2 1 2.675781 1 3.5 L 1 12.5 C 1 13.324219 1.675781 14 2.5 14 L 12.5 14 C 13.324219 14 14 13.324219 14 12.5 L 14 3.5 C 14 2.675781 13.324219 2 12.5 2 L 12 2 L 12 1 L 11 1 L 11 2 L 4 2 L 4 1 Z M 2.5 3 L 3 3 L 3 4 L 4 4 L 4 3 L 11 3 L 11 4 L 12 4 L 12 3 L 12.5 3 C 12.78125 3 13 3.21875 13 3.5 L 13 5 L 2 5 L 2 3.5 C 2 3.21875 2.21875 3 2.5 3 Z M 2 6 L 13 6 L 13 12.5 C 13 12.78125 12.78125 13 12.5 13 L 2.5 13 C 2.21875 13 2 12.78125 2 12.5 Z M 8.492188 7.992188 C 8.289063 7.996094 8.105469 8.117188 8.03125 8.308594 C 7.953125 8.496094 8 8.710938 8.148438 8.851563 L 8.792969 9.5 L 8.148438 10.144531 C 8.015625 10.273438 7.964844 10.457031 8.007813 10.632813 C 8.054688 10.808594 8.191406 10.945313 8.367188 10.992188 C 8.542969 11.035156 8.726563 10.984375 8.851563 10.855469 L 9.5 10.207031 L 10.144531 10.855469 C 10.273438 10.984375 10.457031 11.035156 10.632813 10.992188 C 10.808594 10.945313 10.945313 10.808594 10.992188 10.632813 C 11.035156 10.457031 10.984375 10.273438 10.855469 10.144531 L 10.207031 9.5 L 10.855469 8.851563 C 11 8.710938 11.042969 8.492188 10.964844 8.300781 C 10.882813 8.113281 10.695313 7.992188 10.488281 7.996094 C 10.359375 8 10.238281 8.054688 10.144531 8.148438 L 9.5 8.792969 L 8.851563 8.148438 C 8.757813 8.050781 8.628906 7.992188 8.492188 7.992188 Z"/></svg>