<?xml version="1.0" encoding="UTF-8"?><svg xmlns="http://www.w3.org/2000/svg" viewBox="0 0 24 24"><g id="a"/><g id="b"/><g id="c"/><g id="d"/><g id="e"/><g id="f"/><g id="g"/><g id="h"/><g id="i"/><g id="j"><g><path d="M19.75,8c0-.08-.02-.16-.05-.24-.11-.81-.47-1.59-1.05-2.17l-2.24-2.24c-.6-.6-1.36-.95-2.18-1.05-.07-.02-.15-.05-.23-.05-.03,0-.05,.01-.08,.02-.06,0-.11-.02-.16-.02h-5.76c-2.07,0-3.75,1.68-3.75,3.75v12c0,2.07,1.68,3.75,3.75,3.75h8c2.07,0,3.75-1.68,3.75-3.75V8.24c0-.05-.01-.11-.02-.16,0-.03,.02-.05,.02-.08Zm-2.16-1.35c.17,.17,.31,.38,.42,.6h-3.01c-.14,0-.25-.11-.25-.25V3.99c.22,.11,.42,.24,.6,.42l2.24,2.24Zm-1.59,13.6H8c-1.24,0-2.25-1.01-2.25-2.25V6c0-1.24,1.01-2.25,2.25-2.25h5.25v3.25c0,.96,.79,1.75,1.75,1.75h3.25v9.25c0,1.24-1.01,2.25-2.25,2.25Z"/><path d="M16,10.25H8c-.41,0-.75,.34-.75,.75s.34,.75,.75,.75h8c.41,0,.75-.34,.75-.75s-.34-.75-.75-.75Z"/><path d="M16,13.25H8c-.41,0-.75,.34-.75,.75s.34,.75,.75,.75h8c.41,0,.75-.34,.75-.75s-.34-.75-.75-.75Z"/><path d="M12,16.25h-4c-.41,0-.75,.34-.75,.75s.34,.75,.75,.75h4c.41,0,.75-.34,.75-.75s-.34-.75-.75-.75Z"/></g></g><g id="k"/><g id="l"/><g id="m"/><g id="n"/><g id="o"/><g id="p"/><g id="q"/><g id="r"/><g id="s"/><g id="t"/><g id="u"/></svg>