<svg xmlns="http://www.w3.org/2000/svg" width="18.207" height="11" viewBox="0 0 18.207 11">
  <path id="Path_account-group" data-name="Path / account-group" d="M9.1,5.5A2.655,2.655,0,1,1,6.448,8.155,2.655,2.655,0,0,1,9.1,5.5M3.793,7.4a2.24,2.24,0,0,1,1.161.319,4.2,4.2,0,0,0,.857,3A2.275,2.275,0,1,1,3.793,7.4m10.621,0A2.276,2.276,0,1,1,12.4,10.719a4.2,4.2,0,0,0,.857-3A2.24,2.24,0,0,1,14.414,7.4M4.172,15.172c0-1.57,2.208-2.845,4.931-2.845s4.931,1.274,4.931,2.845V16.5H4.172V15.172M0,16.5V15.362c0-1.054,1.434-1.942,3.376-2.2a3.068,3.068,0,0,0-.721,2.01V16.5H0m18.207,0H15.552V15.172a3.068,3.068,0,0,0-.721-2.01c1.942.258,3.376,1.146,3.376,2.2Z" transform="translate(0 -5.5)" fill="#2b2d41"/>
</svg>
