<svg xmlns="http://www.w3.org/2000/svg" viewBox="0 0 32 32"><g id="note"><path d="M24.68,2H7.32A2.32,2.32,0,0,0,5,4.32V29a1,1,0,0,0,1.51.86L11,27.17l4.49,2.69a1,1,0,0,0,1,0L21,27.17l4.49,2.69A1,1,0,0,0,26,30a1,1,0,0,0,.49-.13A1,1,0,0,0,27,29V4.32A2.32,2.32,0,0,0,24.68,2ZM25,27.23l-3.49-2.09a1,1,0,0,0-1,0L16,27.83l-4.49-2.69a1,1,0,0,0-1,0L7,27.23V4.32A.32.32,0,0,1,7.32,4H24.68a.32.32,0,0,1,.32.32Z"/><path d="M21,7H11a1,1,0,0,0,0,2H21a1,1,0,0,0,0-2Z"/><path d="M21,12H11a1,1,0,0,0,0,2H21a1,1,0,0,0,0-2Z"/><path d="M21,17H11a1,1,0,0,0,0,2H21a1,1,0,0,0,0-2Z"/></g></svg>