<svg xmlns="http://www.w3.org/2000/svg" width="16.637" height="16.637" viewBox="0 0 16.637 16.637">
  <path id="Path_cog-off-outline" data-name="Path / cog-off-outline" d="M17.747,17.361,2.124,1.73,1.11,2.736,3.4,5.018,2.084,7.276a.391.391,0,0,0,.1.507L3.851,9.074,3.8,9.866l.055.768L2.18,11.95a.391.391,0,0,0-.1.507L3.669,15.2a.4.4,0,0,0,.483.174l1.973-.8a5.5,5.5,0,0,0,1.339.784l.293,2.1a.4.4,0,0,0,.4.333h3.169a.4.4,0,0,0,.4-.333l.293-2.1a5.328,5.328,0,0,0,1.1-.618l3.628,3.628,1.006-1.006M8.153,9.787l1.664,1.664H9.737A1.584,1.584,0,0,1,8.153,9.866V9.787m2.48,4.349L10.339,16.2h-1.2l-.293-2.076a4.313,4.313,0,0,1-2.385-1.394l-1.925.824-.594-1.03,1.68-1.236a4.4,4.4,0,0,1,0-2.852L3.946,7.212l.594-1.03.048.016,2.3,2.313a3.072,3.072,0,0,0-.317,1.355,3.168,3.168,0,0,0,3.169,3.169,2.967,2.967,0,0,0,1.355-.317l.887.887a4.428,4.428,0,0,1-1.347.531M8.2,5.794,7,4.6c.151-.071.3-.158.459-.222l.293-2.1a.4.4,0,0,1,.4-.333h3.169a.4.4,0,0,1,.4.333l.293,2.1a5.743,5.743,0,0,1,1.339.776l1.973-.792a.389.389,0,0,1,.483.174L17.39,7.276a.391.391,0,0,1-.1.507L15.624,9.074l.055.792-.055.792L17.3,11.95a.391.391,0,0,1,.1.507l-.919,1.6-1.157-1.149.222-.38L13.857,11.3a4.421,4.421,0,0,0,0-2.86l1.672-1.228-.594-1.03-1.909.824a4.294,4.294,0,0,0-2.4-1.4l-.293-2.076H9.143L8.85,5.6a3.625,3.625,0,0,0-.65.2m1.537.9a3.168,3.168,0,0,1,3.169,3.169,3.409,3.409,0,0,1-.055.578L9.159,6.753A3.409,3.409,0,0,1,9.737,6.7Z" transform="translate(-1.11 -1.73)" fill="#2b2d41"/>
</svg>
