<svg xmlns="http://www.w3.org/2000/svg" width="15.942" height="16" viewBox="0 0 15.942 16">
  <path id="Path_wrench-outline" data-name="Path / wrench-outline" d="M16.727,14.1,10.119,7.487A4.728,4.728,0,0,0,2.935,1.919l2.795,2.8L4.7,5.733,1.909,2.96A4.724,4.724,0,0,0,7.4,10.165l6.63,6.63a.725.725,0,0,0,1.026,0l1.674-1.674a.716.716,0,0,0,0-1.019M14.544,15.26,7.659,8.375a3.182,3.182,0,0,1-1.456.6A3.265,3.265,0,0,1,2.455,5.558L4.7,7.807,7.79,4.721,5.541,2.458a3.329,3.329,0,0,1,2.5.968,3.252,3.252,0,0,1,.9,2.882,3.165,3.165,0,0,1-.64,1.426l6.885,6.878Z" transform="translate(-0.998 -1.008)" fill="#2b2d41"/>
</svg>
