<svg xmlns="http://www.w3.org/2000/svg" width="15.416" height="15.845" viewBox="0 0 15.416 15.845">
  <path id="Path_cog-outline" data-name="Path / cog-outline" d="M9.978,6.753A3.169,3.169,0,1,1,6.81,9.922,3.169,3.169,0,0,1,9.978,6.753m0,1.584a1.584,1.584,0,1,0,1.584,1.584A1.584,1.584,0,0,0,9.978,8.338M8.394,17.845a.4.4,0,0,1-.4-.333l-.293-2.1a5.5,5.5,0,0,1-1.339-.784l-1.973.8a.4.4,0,0,1-.483-.174L2.326,12.513a.391.391,0,0,1,.1-.507l1.672-1.315-.055-.768.055-.792L2.421,7.839a.391.391,0,0,1-.1-.507L3.91,4.591a.389.389,0,0,1,.483-.174l1.973.792A5.743,5.743,0,0,1,7.7,4.432L8,2.333A.4.4,0,0,1,8.394,2h3.169a.4.4,0,0,1,.4.333l.293,2.1a5.743,5.743,0,0,1,1.339.776l1.973-.792a.389.389,0,0,1,.483.174l1.584,2.741a.391.391,0,0,1-.1.507L15.865,9.13l.055.792-.055.792,1.672,1.291a.391.391,0,0,1,.1.507l-1.584,2.741a.389.389,0,0,1-.483.174l-1.973-.792a5.743,5.743,0,0,1-1.339.776l-.293,2.1a.4.4,0,0,1-.4.333H8.394m.99-14.26L9.091,5.652a4.351,4.351,0,0,0-2.4,1.41L4.781,6.238l-.594,1.03L5.859,8.5a4.4,4.4,0,0,0,0,2.852l-1.68,1.236.594,1.03L6.7,12.79a4.313,4.313,0,0,0,2.385,1.394l.293,2.076h1.2l.293-2.068a4.371,4.371,0,0,0,2.385-1.4l1.925.824.594-1.03L14.1,11.356a4.421,4.421,0,0,0,0-2.86L15.77,7.268l-.594-1.03-1.909.824a4.294,4.294,0,0,0-2.4-1.4l-.293-2.076Z" transform="translate(-2.271 -2)" fill="#2b2d41"/>
</svg>
