<?xml version="1.0" encoding="UTF-8"?><svg xmlns="http://www.w3.org/2000/svg" viewBox="0 0 24 24"><g id="a"/><g id="b"/><g id="c"/><g id="d"/><g id="e"/><g id="f"/><g id="g"/><g id="h"/><g id="i"/><g id="j"/><g id="k"/><g id="l"/><g id="m"/><g id="n"/><g id="o"/><g id="p"/><g id="q"/><g id="r"/><g id="s"/><g id="t"><path d="M20.76,6.82l-4.72-3.94c-.49-.41-1.12-.64-1.76-.64H5c-1.52,0-2.75,1.23-2.75,2.75v14c0,1.52,1.23,2.75,2.75,2.75h14c1.52,0,2.75-1.23,2.75-2.75V8.94c0-.82-.36-1.59-.99-2.11Zm-7.51-3.07v3.25c0,.69-.56,1.25-1.25,1.25h-4c-.69,0-1.25-.56-1.25-1.25V3.75h6.5ZM6.75,20.25v-4.25c0-.69,.56-1.25,1.25-1.25h8c.69,0,1.25,.56,1.25,1.25v4.25H6.75Zm13.5-1.25c0,.69-.56,1.25-1.25,1.25h-.25v-4.25c0-1.52-1.23-2.75-2.75-2.75H8c-1.52,0-2.75,1.23-2.75,2.75v4.25h-.25c-.69,0-1.25-.56-1.25-1.25V5c0-.69,.56-1.25,1.25-1.25h.25v3.25c0,1.52,1.23,2.75,2.75,2.75h4c1.52,0,2.75-1.23,2.75-2.75V3.85c.12,.05,.23,.11,.33,.19l4.72,3.94c.29,.24,.45,.59,.45,.96v10.06Z"/></g><g id="u"/></svg>