<svg xmlns="http://www.w3.org/2000/svg" viewBox="0 0 32 32"><g id="settings"><path d="M27,4H5A3.05,3.05,0,0,0,2,7V25a3.05,3.05,0,0,0,3,3H27a3.05,3.05,0,0,0,3-3V7A3.05,3.05,0,0,0,27,4Zm1,21a1,1,0,0,1-1,1H5a1,1,0,0,1-1-1V7A1,1,0,0,1,5,6H27a1,1,0,0,1,1,1Z"/><path d="M9,8a3,3,0,0,0-1,5.83A1,1,0,0,0,8,14v9a1,1,0,0,0,2,0V14a1,1,0,0,0,0-.17A3,3,0,0,0,9,8Zm0,4a1,1,0,1,1,1-1A1,1,0,0,1,9,12Z"/><path d="M17,13.17A1,1,0,0,0,17,13V9a1,1,0,0,0-2,0v4a1,1,0,0,0,0,.17,3,3,0,0,0,0,5.65V23a1,1,0,0,0,2,0V18.82a3,3,0,0,0,0-5.65ZM16,17a1,1,0,1,1,1-1A1,1,0,0,1,16,17Z"/><path d="M23,8a3,3,0,0,0-1,5.83A1,1,0,0,0,22,14v9a1,1,0,0,0,2,0V14a1,1,0,0,0,0-.17A3,3,0,0,0,23,8Zm0,4a1,1,0,1,1,1-1A1,1,0,0,1,23,12Z"/></g></svg>