<?xml version="1.0" encoding="UTF-8"?><svg xmlns="http://www.w3.org/2000/svg" viewBox="0 0 24 24"><g id="a"/><g id="b"/><g id="c"/><g id="d"/><g id="e"/><g id="f"/><g id="g"/><g id="h"/><g id="i"/><g id="j"/><g id="k"/><g id="l"/><g id="m"/><g id="n"><path d="M18,3.25H6c-2.07,0-3.75,1.68-3.75,3.75v10c0,2.07,1.68,3.75,3.75,3.75h12c2.07,0,3.75-1.68,3.75-3.75V7c0-2.07-1.68-3.75-3.75-3.75ZM9.75,15.25v-2.5h4.5v2.5h-4.5Zm4.5,1.5v2.5h-4.5v-2.5h4.5Zm0-8v2.5h-4.5v-2.5h4.5Zm6,0v2.5h-4.5v-2.5h4.5Zm-12,2.5H3.75v-2.5h4.5v2.5Zm-4.5,1.5h4.5v2.5H3.75v-2.5Zm12,0h4.5v2.5h-4.5v-2.5ZM6,4.75h12c1.24,0,2.25,1.01,2.25,2.25v.25H3.75v-.25c0-1.24,1.01-2.25,2.25-2.25Zm-2.25,12.25v-.25h4.5v2.5h-2.25c-1.24,0-2.25-1.01-2.25-2.25Zm14.25,2.25h-2.25v-2.5h4.5v.25c0,1.24-1.01,2.25-2.25,2.25Z"/></g><g id="o"/><g id="p"/><g id="q"/><g id="r"/><g id="s"/><g id="t"/><g id="u"/></svg>