<svg fill="#000000" xmlns="http://www.w3.org/2000/svg"  viewBox="0 0 16 16" width="16px" height="16px"><path d="M 3 1 L 3 2 L 2.5 2 C 1.675781 2 1 2.683594 1 3.507813 L 1 12.488281 C 1 13.316406 1.675781 14 2.5 14 L 12.5 14 C 13.324219 14 14 13.316406 14 12.488281 L 14 3.507813 C 14 2.683594 13.324219 2 12.5 2 L 12 2 L 12 1 L 11 1 L 11 2 L 4 2 L 4 1 Z M 2.5 3 L 3 3 L 3 4 L 4 4 L 4 3 L 11 3 L 11 4 L 12 4 L 12 3 L 12.5 3 C 12.78125 3 13 3.21875 13 3.507813 L 13 5 L 2 5 L 2 3.507813 C 2 3.21875 2.21875 3 2.5 3 Z M 2 6 L 13 6 L 13 12.488281 C 13 12.777344 12.78125 13 12.5 13 L 2.5 13 C 2.21875 13 2 12.777344 2 12.488281 Z M 10.269531 7.023438 L 6.5 10.792969 L 4.726563 9.023438 L 4.023438 9.726563 L 6.5 12.207031 L 10.980469 7.726563 Z"/></svg>