<svg xmlns="http://www.w3.org/2000/svg" width="16.122" height="16.181" viewBox="0 0 16.122 16.181"><path d="M16.905,14.251,10.222,7.56A4.782,4.782,0,0,0,2.957,1.93L5.784,4.763,4.739,5.786,1.92,2.982a4.777,4.777,0,0,0,5.55,7.287l6.705,6.705a.733.733,0,0,0,1.038,0l1.693-1.693a.724.724,0,0,0,0-1.03M14.7,15.421,7.734,8.458a3.218,3.218,0,0,1-1.472.6A3.3,3.3,0,0,1,2.472,5.61L4.746,7.884,7.867,4.763,5.592,2.474a3.366,3.366,0,0,1,2.532.979,3.289,3.289,0,0,1,.913,2.915,3.2,3.2,0,0,1-.648,1.443l6.963,6.956Z" transform="translate(-0.998 -1.008)" fill="#fff"/></svg>