<svg xmlns="http://www.w3.org/2000/svg" width="30" height="30" viewBox="0 0 30 30">
  <title>Undo</title>
  <g>
    <path d="M15,30A15,15,0,1,1,30,15,15.017,15.017,0,0,1,15,30ZM15,2A13,13,0,1,0,28,15,13.015,13.015,0,0,0,15,2Z" fill="#212121"/>
    <path d="M14.777,23a1,1,0,0,1,0-2,6,6,0,1,0-6-6,1,1,0,0,1-2,0,8,8,0,1,1,8,8Z" fill="#212121"/>
    <path d="M7.777,16a1,1,0,0,1-.707-.293L5.516,14.151A1,1,0,1,1,6.93,12.737l1.046,1.046.91-.455a1,1,0,1,1,.894,1.789L8.225,15.9A1,1,0,0,1,7.777,16Z" fill="#212121"/>
  </g>
</svg>
