<svg id="n" xmlns="http://www.w3.org/2000/svg" width="16.545" height="14" viewBox="0 0 16.545 14">
  <path id="Path_38" data-name="Path 38" d="M17.455,11.479A4.884,4.884,0,0,0,18.7,9.1a.6.6,0,0,0-.127-.518.673.673,0,0,0-.475-.246,3.889,3.889,0,0,1-2.834-1.451,3.79,3.79,0,0,1-.721-2.9.637.637,0,0,0-.144-.518.629.629,0,0,0-.484-.229A4.885,4.885,0,0,0,9.038,8.119a3.846,3.846,0,0,0,.025.441A4.9,4.9,0,0,0,6.2,10.978a3.248,3.248,0,0,0-.764-.1,3.182,3.182,0,1,0,0,6.364H15.614a3.177,3.177,0,0,0,1.841-5.77ZM10.311,8.127a3.606,3.606,0,0,1,2.919-3.538,5.032,5.032,0,0,0,1.035,3.08A5.1,5.1,0,0,0,17.251,9.51a3.552,3.552,0,0,1-1.095,1.434A2.917,2.917,0,0,0,14.85,11a4.866,4.866,0,0,0-4.327-2.647,1.271,1.271,0,0,0-.187.017c0-.076-.025-.153-.025-.229Zm5.3,7.848H5.432a1.909,1.909,0,1,1,0-3.818,1.89,1.89,0,0,1,.832.187H6.3c.008,0,.017.008.025.017a.289.289,0,0,0,.119.017c.025,0,.059.017.085.017h.008a.5.5,0,0,0,.2-.034c.025-.008.051-.025.076-.034a.481.481,0,0,0,.11-.068.549.549,0,0,0,.076-.068l.076-.1c.008-.017.034-.034.042-.051A.051.051,0,0,1,7.12,12a.085.085,0,0,0,.008-.025A3.611,3.611,0,0,1,10.523,9.6a3.541,3.541,0,0,1,3.326,2.206c.008.025.034.042.042.068a.622.622,0,0,0,.042.17.638.638,0,0,0,.848.3,1.838,1.838,0,0,1,.832-.187,1.909,1.909,0,1,1,0,3.818Z" transform="translate(-2.25 -3.24)" fill="#fff"/>
</svg>
