<svg id="s" xmlns="http://www.w3.org/2000/svg" width="17.572" height="9.462" viewBox="0 0 17.572 9.462">
  <g id="Group_2" data-name="Group 2">
    <path id="Path_10" data-name="Path 10" d="M11.53,11.25a4.284,4.284,0,0,0-4.28,4.28.681.681,0,0,0,.676.676h7.209a.681.681,0,0,0,.676-.676A4.284,4.284,0,0,0,11.53,11.25Zm-2.848,3.6a2.926,2.926,0,0,1,5.7,0h-5.7Z" transform="translate(-2.744 -6.744)" fill="#fff"/>
    <path id="Path_11" data-name="Path 11" d="M18.624,9.088a.68.68,0,0,0-.955,0L16.4,10.359a.68.68,0,0,0,0,.955.674.674,0,0,0,.955,0l1.271-1.271A.68.68,0,0,0,18.624,9.088Z" transform="translate(-3.629 -6.511)" fill="#fff"/>
    <path id="Path_12" data-name="Path 12" d="M7.314,10.359,6.044,9.088a.675.675,0,0,0-.955.955l1.271,1.271a.674.674,0,0,0,.955,0A.68.68,0,0,0,7.314,10.359Z" transform="translate(-2.511 -6.511)" fill="#fff"/>
    <path id="Path_13" data-name="Path 13" d="M11.926,9.4a.681.681,0,0,0,.676-.676v-1.8a.676.676,0,0,0-1.352,0v1.8A.681.681,0,0,0,11.926,9.4Z" transform="translate(-3.14 -6.25)" fill="#fff"/>
    <path id="Path_14" data-name="Path 14" d="M20.728,15.25h-1.8a.676.676,0,0,0,0,1.352h1.8a.676.676,0,0,0,0-1.352Z" transform="translate(-3.832 -7.14)" fill="#fff"/>
    <path id="Path_15" data-name="Path 15" d="M4.728,15.25h-1.8a.676.676,0,0,0,0,1.352h1.8a.676.676,0,0,0,0-1.352Z" transform="translate(-2.25 -7.14)" fill="#fff"/>
  </g>
</svg>
